<svg width="167" height="32" viewBox="0 0 167 32" fill="none" xmlns="http://www.w3.org/2000/svg">
<path d="M158.262 24.1107C156.714 24.1107 155.138 23.8987 153.534 23.4747C151.949 23.0323 150.456 22.3687 149.055 21.4839L151.958 17.53C152.806 18.1383 153.829 18.6176 155.027 18.9678C156.225 19.2996 157.257 19.4655 158.124 19.4655C158.953 19.4655 159.589 19.3549 160.032 19.1337C160.492 18.8941 160.723 18.5899 160.723 18.2213C160.723 17.9263 160.612 17.6959 160.391 17.53C160.17 17.3641 159.866 17.2812 159.479 17.2812C159.239 17.2812 158.962 17.2904 158.649 17.3088C158.354 17.3273 158.115 17.3457 157.93 17.3641C156.972 17.4747 155.986 17.53 154.972 17.53C153.331 17.53 151.995 17.2259 150.963 16.6176C149.949 15.9909 149.442 14.977 149.442 13.5761C149.442 11.954 150.207 10.7006 151.737 9.81577C153.267 8.91255 155.515 8.46094 158.483 8.46094C159.939 8.46094 161.405 8.67292 162.88 9.09688C164.373 9.50241 165.691 10.1199 166.833 10.9494L163.654 14.1568C162.603 13.6038 161.617 13.2167 160.695 12.9955C159.792 12.7559 158.88 12.636 157.958 12.636C157.313 12.636 156.76 12.7651 156.299 13.0231C155.838 13.2812 155.608 13.5761 155.608 13.9079C155.608 14.166 155.7 14.3688 155.884 14.5162C156.087 14.6637 156.345 14.7374 156.658 14.7374C156.972 14.7374 157.405 14.7098 157.958 14.6545C159.304 14.5623 160.308 14.5162 160.972 14.5162C162.889 14.5162 164.373 14.8388 165.423 15.484C166.474 16.1291 166.999 17.1153 166.999 18.4425C166.999 20.4333 166.225 21.8803 164.677 22.7835C163.128 23.6683 160.99 24.1107 158.262 24.1107Z" fill="#202020"/>
<path d="M148.219 8.7373L147.583 10.341C145.832 15.0046 143.998 19.5022 142.081 23.834C141.086 26.046 139.648 27.8156 137.768 29.1428C135.888 30.4884 133.528 31.1335 130.69 31.0782C130.339 29.5483 130.044 28.3501 129.805 27.4838C129.584 26.6359 129.289 25.7787 128.92 24.9124C129.934 25.152 130.883 25.2718 131.768 25.2718C133.206 25.2718 134.348 24.9677 135.196 24.3594C134.533 22.387 133.749 20.2672 132.846 17.9999C131.943 15.7327 130.634 12.6451 128.92 8.7373H135.473C135.694 9.65896 135.998 10.7281 136.385 11.9447C136.772 13.1613 137.16 14.3318 137.547 15.4562C137.657 15.8064 137.832 16.341 138.072 17.0599C138.33 17.7603 138.533 18.3502 138.68 18.8294L139.399 16.6451C140.782 12.6451 141.602 10.0092 141.86 8.7373H148.219Z" fill="#202020"/>
<path d="M120.217 24.1107C117.065 24.1107 114.742 23.3918 113.249 21.954C111.774 20.4978 111.037 18.5899 111.037 16.2305C111.037 13.9264 111.774 12.0554 113.249 10.6176C114.742 9.17983 117.065 8.46094 120.217 8.46094C122.337 8.46094 124.106 8.81117 125.526 9.51163C126.963 10.1937 128.023 11.1245 128.705 12.3042C129.387 13.4655 129.728 14.7743 129.728 16.2305C129.728 18.6084 128.936 20.5162 127.35 21.954C125.784 23.3918 123.406 24.1107 120.217 24.1107ZM120.327 19.4102C121.526 19.4102 122.42 19.1245 123.009 18.5531C123.599 17.9816 123.894 17.2167 123.894 16.2581C123.894 15.3549 123.599 14.6176 123.009 14.0462C122.42 13.4563 121.526 13.1614 120.327 13.1614C119.129 13.1614 118.254 13.4471 117.701 14.0185C117.148 14.59 116.871 15.3365 116.871 16.2581C116.871 17.2167 117.148 17.9816 117.701 18.5531C118.254 19.1245 119.129 19.4102 120.327 19.4102Z" fill="#202020"/>
<path d="M113.247 9.56718C110.353 9.47501 107.542 9.41971 104.814 9.40128V23.8344H97.9016V9.40128C95.1551 9.41971 92.3532 9.47501 89.4961 9.56718V3.76074H113.247V9.56718Z" fill="#202020"/>
<path d="M87.409 16.9217H78.3952C78.5427 17.7328 78.9022 18.3964 79.4736 18.9125C80.0634 19.4102 80.8929 19.6591 81.9621 19.6591C82.7362 19.6591 83.4644 19.5116 84.1464 19.2167C84.8284 18.9033 85.3722 18.4701 85.7777 17.9171C87.0127 18.5254 88.6533 19.1798 90.6994 19.8803C90.1279 21.1706 89.0865 22.2028 87.5749 22.977C86.0819 23.7328 84.1279 24.1107 81.7132 24.1107C78.5796 24.1107 76.257 23.3918 74.7455 21.954C73.2524 20.4978 72.5059 18.5899 72.5059 16.2305C72.5059 13.9264 73.2524 12.0554 74.7455 10.6176C76.2386 9.17983 78.5611 8.46094 81.7132 8.46094C83.5934 8.46094 85.2247 8.7743 86.6072 9.40103C87.9897 10.0278 89.0496 10.9033 89.7869 12.0277C90.5242 13.1337 90.8929 14.4056 90.8929 15.8434C90.8929 16.3227 90.8745 16.6821 90.8376 16.9217H87.409ZM82.1003 12.636C81.1786 12.636 80.4229 12.8112 79.833 13.1614C79.2432 13.5116 78.8284 13.9909 78.5888 14.5992H85.1141C84.8929 14.0093 84.5335 13.5393 84.0358 13.189C83.5381 12.8204 82.8929 12.636 82.1003 12.636Z" fill="#202020"/>
<path d="M58.8464 16.2858C58.8833 17.2259 59.1782 17.9816 59.7312 18.5531C60.3026 19.1245 61.1413 19.4102 62.2473 19.4102C62.8556 19.4102 63.3994 19.2996 63.8787 19.0784C64.3579 18.8388 64.8003 18.4886 65.2058 18.0277C66.7727 18.636 68.6068 19.1614 70.7081 19.6038C70.0998 21.0231 69.0676 22.1291 67.6114 22.9217C66.1736 23.7143 64.3026 24.1107 61.9985 24.1107C58.9201 24.1107 56.6437 23.3918 55.169 21.954C53.6944 20.5162 52.957 18.6268 52.957 16.2858C52.957 13.9448 53.6944 12.0554 55.169 10.6176C56.6437 9.17983 58.9201 8.46094 61.9985 8.46094C64.3026 8.46094 66.1736 8.85725 67.6114 9.64987C69.0676 10.4425 70.0998 11.5485 70.7081 12.9678C69.0676 13.3181 67.2335 13.8434 65.2058 14.5439C64.8003 14.083 64.3579 13.742 63.8787 13.5208C63.3994 13.2812 62.8556 13.1614 62.2473 13.1614C61.1413 13.1614 60.3026 13.4471 59.7312 14.0185C59.1782 14.59 58.8833 15.3457 58.8464 16.2858Z" fill="#202020"/>
<path d="M47.325 7.10643C46.1638 7.10643 45.2974 6.82072 44.726 6.24929C44.173 5.67787 43.8965 4.93132 43.8965 4.00967C43.8965 3.10645 44.173 2.3599 44.726 1.77004C45.2974 1.18018 46.1638 0.885254 47.325 0.885254C48.431 0.885254 49.279 1.1894 49.8688 1.79769C50.4587 2.38755 50.7536 3.12488 50.7536 4.00967C50.7536 4.93132 50.4679 5.67787 49.8965 6.24929C49.325 6.82072 48.4679 7.10643 47.325 7.10643ZM44.1177 23.8345C44.2467 20.8668 44.3112 18.4152 44.3112 16.4797C44.3112 14.1755 44.2375 11.5949 44.09 8.73776H50.726C50.5785 11.4843 50.5048 14.0649 50.5048 16.4797C50.5048 18.5073 50.5693 20.9589 50.6983 23.8345H44.1177Z" fill="#202020"/>
<path d="M32.1641 24.1107C29.012 24.1107 26.6894 23.3918 25.1964 21.954C23.7217 20.4978 22.9844 18.5899 22.9844 16.2305C22.9844 13.9264 23.7217 12.0554 25.1964 10.6176C26.6894 9.17983 29.012 8.46094 32.1641 8.46094C34.2839 8.46094 36.0535 8.81117 37.4728 9.51163C38.9106 10.1937 39.9705 11.1245 40.6525 12.3042C41.3345 13.4655 41.6756 14.7743 41.6756 16.2305C41.6756 18.6084 40.8829 20.5162 39.2977 21.954C37.7309 23.3918 35.353 24.1107 32.1641 24.1107ZM32.2747 19.4102C33.4728 19.4102 34.3668 19.1245 34.9567 18.5531C35.5465 17.9816 35.8415 17.2167 35.8415 16.2581C35.8415 15.3549 35.5465 14.6176 34.9567 14.0462C34.3668 13.4563 33.4728 13.1614 32.2747 13.1614C31.0765 13.1614 30.2009 13.4471 29.648 14.0185C29.095 14.59 28.8185 15.3365 28.8185 16.2581C28.8185 17.2167 29.095 17.9816 29.648 18.5531C30.2009 19.1245 31.0765 19.4102 32.2747 19.4102Z" fill="#202020"/>
<path d="M25.1082 3.76074L23.2833 7.99114C21.6797 11.7331 20.417 14.7284 19.4953 16.9773C18.5737 19.2261 17.7258 21.5118 16.9516 23.8344H8.68431C7.92855 21.5487 7.08984 19.2906 6.16818 17.0602C5.26496 14.8114 4.04838 11.9358 2.51843 8.43354C2.26036 7.84368 1.58755 6.28608 0.5 3.76074H8.18661C8.73961 5.54876 9.55988 7.84368 10.6474 10.6455C11.606 13.1156 12.3801 15.2538 12.97 17.0602C13.3571 15.7884 13.8179 14.4335 14.3525 12.9957C14.9055 11.5395 15.2373 10.6547 15.3479 10.3414C16.417 7.5211 17.2004 5.32756 17.6981 3.76074H25.1082Z" fill="#202020"/>
</svg>
