<svg width="32" height="32" viewBox="0 0 32 32" fill="none" xmlns="http://www.w3.org/2000/svg">
<g clipPath="url(#clip0_240_3344)">
<path d="M30.7692 9H1.23077C0.557949 9 0 8.54667 0 8C0 7.45333 0.557949 7 1.23077 7H30.7692C31.4421 7 32 7.45333 32 8C32 8.54667 31.4421 9 30.7692 9Z" fill="#202020"/>
<path d="M30.7692 17H1.23077C0.557949 17 0 16.5467 0 16C0 15.4533 0.557949 15 1.23077 15H30.7692C31.4421 15 32 15.4533 32 16C32 16.5467 31.4421 17 30.7692 17Z" fill="#202020"/>
<path d="M30.7692 25H1.23077C0.557949 25 0 24.5467 0 24C0 23.4533 0.557949 23 1.23077 23H30.7692C31.4421 23 32 23.4533 32 24C32 24.5467 31.4421 25 30.7692 25Z" fill="#202020"/>
</g>
<defs>
<clipPath id="clip0_240_3344">
<rect width="32" height="32" fill="white"/>
</clipPath>
</defs>
</svg>
