<svg xmlns="http://www.w3.org/2000/svg" version="1.1" xmlns:xlink="http://www.w3.org/1999/xlink" xmlns:svgjs="http://svgjs.dev/svgjs" width="16" height="16"><svg width="16" height="16" viewBox="0 0 16 16" fill="none" xmlns="http://www.w3.org/2000/svg">
<rect x="1.88818" y="2.49927" width="12.2239" height="12.2239" rx="1.22239" fill="#A1E7F8"></rect>
<mask id="SvgjsMask1030" style="mask-type:alpha" maskUnits="userSpaceOnUse" x="1" y="2" width="14" height="13">
<rect x="1.88818" y="2.49927" width="12.2239" height="12.2239" rx="1.22239" fill="#9DE2F2"></rect>
</mask>
<g mask="url(#mask0_339_8258)">
<path d="M14.1121 2.49927V13.5009C14.1121 14.176 13.5648 14.7233 12.8897 14.7233H1.88818L12.2509 13.9958C12.8585 13.9532 13.342 13.4697 13.3847 12.862L14.1121 2.49927Z" fill="#7ED1E6"></path>
<path d="M1.8879 14.7231V3.7215C1.8879 3.04639 2.43518 2.4991 3.11029 2.4991H14.1118L3.74913 3.2266C3.1415 3.26926 2.65799 3.75276 2.61534 4.36039L1.8879 14.7231Z" fill="#BFF3FF"></path>
</g>
<circle cx="5.5554" cy="7.38914" r="1.22239" fill="#202020"></circle>
<circle cx="10.4446" cy="7.38914" r="1.22239" fill="#202020"></circle>
<path d="M9.94513 10.5562C10.0645 10.6756 10.0653 10.8704 9.93469 10.9773C9.39128 11.4216 8.70847 11.6674 8.00032 11.6674C7.29216 11.6674 6.60935 11.4216 6.06594 10.9773C5.93528 10.8704 5.93616 10.6756 6.0555 10.5562C6.17485 10.4369 6.36732 10.4386 6.50061 10.5422C6.92724 10.8736 7.45437 11.0562 8.00032 11.0562C8.54626 11.0562 9.07339 10.8736 9.50002 10.5422C9.63331 10.4386 9.82578 10.4369 9.94513 10.5562Z" fill="#202020"></path>
<path d="M10.351 6.74947C10.5299 6.92843 10.4006 7.08815 10.2216 7.26711C10.0427 7.44607 9.88821 7.44607 9.70925 7.26711C9.53029 7.08815 9.56108 6.92843 9.74003 6.74947C9.91899 6.57051 10.172 6.57051 10.351 6.74947Z" fill="white"></path>
<path d="M5.36124 6.76045C5.5402 6.93941 5.41083 7.09914 5.23187 7.2781C5.05292 7.45705 4.89846 7.45705 4.7195 7.2781C4.54055 7.09914 4.57133 6.93941 4.75029 6.76045C4.92924 6.5815 5.18228 6.5815 5.36124 6.76045Z" fill="white"></path>
<path d="M3.72168 2.49925C3.72168 1.82414 4.26896 1.27686 4.94407 1.27686H6.16646C6.84157 1.27686 7.38885 1.82414 7.38885 2.49925H3.72168Z" fill="#A1E7F8"></path>
<mask id="SvgjsMask1029" style="mask-type:alpha" maskUnits="userSpaceOnUse" x="3" y="1" width="5" height="2">
<path d="M3.72168 2.49925C3.72168 1.82414 4.26896 1.27686 4.94407 1.27686H6.16646C6.84157 1.27686 7.38885 1.82414 7.38885 2.49925H3.72168Z" fill="#A1E7F8"></path>
</mask>
<g mask="url(#mask1_339_8258)">
<path d="M3.72168 2.30938C3.72168 1.73094 4.17542 1.25419 4.75316 1.22559L5.74857 1.17632C5.76877 1.17532 5.78464 1.15865 5.78464 1.13843L5.25879 1.33891C4.71481 1.5463 4.29491 1.99017 4.118 2.54481H3.72168V2.30938Z" fill="#BFF2FF"></path>
<path d="M7.80908 2.4215C7.80908 1.79678 7.33803 1.27258 6.71685 1.20606L6.51846 1.18481H6.15076L6.28642 1.26898C6.74664 1.55448 7.06079 2.02516 7.1479 2.55969L7.80908 2.59119V2.4215Z" fill="#7ED1E5"></path>
</g>
<path d="M8.61084 2.49925C8.61084 1.82414 9.15812 1.27686 9.83323 1.27686H11.0556C11.7307 1.27686 12.278 1.82414 12.278 2.49925H8.61084Z" fill="#A1E7F8"></path>
<mask id="SvgjsMask1028" style="mask-type:alpha" maskUnits="userSpaceOnUse" x="8" y="1" width="5" height="2">
<path d="M8.61084 2.49925C8.61084 1.82414 9.15812 1.27686 9.83323 1.27686H11.0556C11.7307 1.27686 12.278 1.82414 12.278 2.49925H8.61084Z" fill="#A1E7F8"></path>
</mask>
<g mask="url(#mask2_339_8258)">
<path d="M8.61084 2.35577C8.61084 1.77733 9.06458 1.30057 9.64232 1.27198L10.6377 1.22271C10.6579 1.22171 10.6738 1.20504 10.6738 1.18481L10.1479 1.3853C9.60397 1.59269 9.18407 2.03655 9.00716 2.59119H8.61084V2.35577Z" fill="#BFF2FF"></path>
<path d="M12.7144 2.4215C12.7144 1.79678 12.2433 1.27258 11.6221 1.20606L11.4237 1.18481H11.056L11.1917 1.26898C11.6519 1.55448 11.9661 2.02516 12.0532 2.55969L12.7144 2.59119V2.4215Z" fill="#7ED1E5"></path>
</g>
</svg><style>@media (prefers-color-scheme: light) { :root { filter: none; } }
@media (prefers-color-scheme: dark) { :root { filter: none; } }
</style></svg>